<svg viewBox="0 0 178 48" fill="none" xmlns="http://www.w3.org/2000/svg">
<path d="M73.5369 27.2649C71.855 27.2649 70.3319 26.5752 69.2286 25.4595C68.8964 25.1238 68.6023 24.7492 68.3531 24.3434C67.7729 23.3975 67.4376 22.2813 67.4376 21.0857C67.4376 19.8939 67.7707 18.781 68.3475 17.8372C68.597 17.429 68.892 17.0524 69.2255 16.7148C70.3291 15.5974 71.8533 14.9064 73.5369 14.9064C75.2194 14.9064 76.7427 15.5966 77.8462 16.7128C78.1818 17.0521 78.4783 17.4307 78.7286 17.8413C79.2698 18.728 79.5955 19.7635 79.6325 20.8732C79.6349 20.9437 79.636 21.0146 79.636 21.0857C79.636 21.1567 79.6349 21.2275 79.6325 21.298C79.5954 22.414 79.266 23.4551 78.7195 24.345C78.4709 24.7499 78.1773 25.1237 77.8459 25.4588C76.7424 26.5748 75.2192 27.2649 73.5369 27.2649ZM79.6444 0V13.2795C79.6405 13.2763 79.6366 13.2731 79.6325 13.2699C77.956 11.9291 75.8386 11.1287 73.5369 11.1287C70.8242 11.1287 68.3676 12.2404 66.5869 14.0382C66.0492 14.5812 65.573 15.1868 65.1699 15.8434C64.2892 17.2783 63.758 18.9562 63.6971 20.7551V21.4341C63.758 23.2307 64.2879 24.9067 65.1666 26.3405C65.5689 26.9969 66.0445 27.6027 66.5817 28.1459C68.363 29.947 70.8216 31.0606 73.5369 31.0606C75.8386 31.0606 77.956 30.2602 79.6325 28.9194C79.6366 28.9162 79.6405 28.9131 79.6444 28.9098C79.9419 28.6712 80.2253 28.4157 80.4934 28.1444C81.0291 27.6026 81.5036 26.9984 81.9051 26.3437C82.825 24.8443 83.3631 23.0796 83.382 21.1888V18.7201H83.3766V11.1047H83.3717L83.373 11.1034H83.3969V0H79.6444Z" fill="white"/>
<path d="M133.517 11.1857H129.794V31.0651H133.517V11.1857Z" fill="white"/>
<path d="M176.106 15.8309C175.702 15.1695 175.224 14.5596 174.684 14.013C174.412 13.7383 174.125 13.4796 173.823 13.2383C172.147 11.8976 170.029 11.0973 167.727 11.0973C165.428 11.0973 163.312 11.8959 161.637 13.2346C161.332 13.4778 161.042 13.7387 160.769 14.0157C160.231 14.5601 159.755 15.1669 159.353 15.8249C158.477 17.257 157.949 18.9301 157.888 20.7236V21.4341C157.977 24.0534 159.062 26.4166 160.772 28.1458C161.045 28.4216 161.334 28.6812 161.637 28.9231V21.3972C161.631 21.2895 161.628 21.1811 161.628 21.0722C161.628 20.9632 161.631 20.8548 161.637 20.7471C161.691 19.6782 162.014 18.6811 162.538 17.8237C162.788 17.4155 163.083 17.039 163.416 16.7013C164.52 15.5839 166.044 14.893 167.727 14.893C169.41 14.893 170.933 15.5831 172.037 16.6993C172.372 17.0386 172.669 17.4172 172.919 17.828C173.46 18.7146 173.786 19.75 173.823 20.8597C173.825 20.9302 173.827 21.0011 173.827 21.0722C173.827 21.1432 173.825 21.214 173.823 21.2845V31.0518H177.572V20.9691C177.554 19.0854 177.02 17.3268 176.106 15.8309Z" fill="white"/>
<path d="M89.7781 19.1761C90.0791 18.2389 90.5952 17.4002 91.2675 16.7194C92.3711 15.6021 93.8954 14.911 95.5789 14.911C98.2879 14.911 100.584 16.7004 101.38 19.1761H89.7781ZM105.243 19.1761C104.362 14.5829 100.37 11.1155 95.5789 11.1155C92.8617 11.1155 90.4015 12.2306 88.6201 14.0339C87.2602 15.4104 86.2958 17.1878 85.9145 19.1761C85.8168 19.6853 85.7572 20.2083 85.7392 20.7418V21.4389C85.7572 21.9716 85.8165 22.4936 85.9139 23.002C86.794 27.5966 90.7866 31.0652 95.5789 31.0652C98.295 31.0652 100.754 29.951 102.535 28.1491L99.8879 25.4635C98.7845 26.5795 97.2612 27.2695 95.5789 27.2695C92.869 27.2695 90.5718 25.479 89.7773 23.002H105.244C105.356 22.4158 105.418 21.8114 105.424 21.1935V20.9872C105.418 20.3684 105.356 19.7632 105.243 19.1761Z" fill="white"/>
<path d="M145.699 27.2453C144.017 27.2453 142.494 26.5555 141.39 25.44C141.058 25.1041 140.764 24.7297 140.515 24.3239C139.987 23.4643 139.662 22.4639 139.608 21.391C139.602 21.2835 139.599 21.175 139.599 21.066C139.599 20.957 139.602 20.8487 139.608 20.741C139.662 19.6722 139.985 18.6751 140.509 17.8177C140.759 17.4095 141.054 17.0329 141.387 16.6952C142.491 15.5779 144.015 14.8868 145.699 14.8868C147.381 14.8868 148.904 15.5771 150.008 16.6933C150.343 17.0326 150.64 17.4112 150.89 17.8218C151.431 18.7085 151.757 19.7439 151.794 20.8536C151.796 20.9241 151.798 20.9949 151.798 21.066C151.798 21.1372 151.796 21.208 151.794 21.2785C151.757 22.3945 151.428 23.4355 150.881 24.3255C150.633 24.7304 150.339 25.104 150.008 25.4393C148.904 26.5552 147.381 27.2453 145.699 27.2453ZM154.077 15.8248C153.673 15.1634 153.195 14.5535 152.655 14.007C152.383 13.7321 152.096 13.4736 151.794 13.2323C150.118 11.8915 148 11.0911 145.699 11.0911C143.399 11.0911 141.283 11.8899 139.608 13.2285C139.303 13.4716 139.013 13.7326 138.74 14.0097C138.202 14.554 137.726 15.1609 137.324 15.8189C136.575 17.0424 136.081 18.4421 135.915 19.9424C135.886 20.1979 135.868 20.4564 135.859 20.7175V21.4145C135.92 23.2112 136.45 24.8872 137.328 26.3208C137.731 26.9774 138.206 27.5832 138.743 28.1264C139.016 28.4022 139.305 28.6617 139.608 28.9037C141.283 30.2423 143.399 31.0409 145.699 31.0409C148 31.0409 150.118 30.2407 151.794 28.8998C152.096 28.6586 152.383 28.3996 152.655 28.1247C153.191 27.583 153.665 26.9788 154.067 26.3242C154.987 24.8248 155.525 23.0601 155.544 21.1693V20.963C155.525 19.0792 154.991 17.3206 154.077 15.8248Z" fill="white"/>
<path d="M155.545 38.0832C155.545 40.0131 155.004 41.8148 154.068 43.3414C153.666 43.9959 153.192 44.6001 152.656 45.1419C152.384 45.4168 152.097 45.6758 151.795 45.9171C150.119 47.2578 148.001 48.0581 145.7 48.0581C143.4 48.0581 141.284 47.2594 139.609 45.9208C139.306 45.6789 139.017 45.4193 138.744 45.1435L139.609 44.2664L141.391 42.4571C142.495 43.5728 144.018 44.2624 145.7 44.2624C147.382 44.2624 148.905 43.5723 150.009 42.4564C150.34 42.1212 150.634 41.7476 150.882 41.3427C151.429 40.4526 151.758 39.4116 151.795 38.2956C151.798 38.2251 151.799 38.1543 151.799 38.0832C151.799 38.012 151.798 37.9412 151.795 37.8707C151.758 36.761 151.432 35.7255 150.891 34.839C150.641 34.4283 150.344 34.0497 150.009 33.7104L151.795 31.8974L152.656 31.0241C153.196 31.5706 153.674 32.1805 154.078 32.842C155.008 34.365 155.545 36.1605 155.545 38.0832Z" fill="white"/>
<path d="M39.3236 28.1489C37.5423 29.951 35.083 31.0651 32.367 31.0651C29.6517 31.0651 27.1931 29.9516 25.4119 28.1505C23.7016 26.4212 22.6161 24.0583 22.5273 21.4388V20.7417C22.616 18.1242 23.7001 15.7627 25.4082 14.0338C27.1896 12.2305 29.6497 11.1154 32.367 11.1154C35.0828 11.1154 37.5419 12.2295 39.3232 14.0311L36.6763 16.7175C35.5728 15.6011 34.0496 14.9111 32.367 14.9111C30.6835 14.9111 29.1592 15.6021 28.0556 16.7194C26.9512 17.8378 26.2678 19.3832 26.2678 21.0902C26.2678 22.7989 26.9523 24.3456 28.0588 25.4641C29.162 26.5798 30.6852 27.2696 32.367 27.2696C34.0493 27.2696 35.5726 26.5793 36.676 25.4635L39.3236 28.1489Z" fill="white"/>
<path d="M58.4653 14.0265C58.193 13.7509 57.905 13.4917 57.6024 13.2499C55.9263 11.9103 53.8099 11.1106 51.5092 11.1106C49.2098 11.1106 47.094 11.9094 45.4184 13.2481V0H41.666V12.3404L41.6695 12.344V21.4342C41.7583 24.0536 42.8439 26.4165 44.5542 28.1458C44.8268 28.4216 45.1154 28.6812 45.4184 28.9231V21.4106C45.4129 21.3029 45.4101 21.1946 45.4101 21.0857C45.4101 20.9766 45.4129 20.8683 45.4184 20.7606C45.4731 19.6917 45.7957 18.6946 46.32 17.8371C46.5694 17.429 46.8645 17.0524 47.1979 16.7148C48.3016 15.5974 49.8258 14.9063 51.5092 14.9063C53.1918 14.9063 54.7152 15.5966 55.8186 16.7128C56.8646 17.7708 57.5333 19.2117 57.6024 20.8102C57.6065 20.9015 57.6085 20.9932 57.6085 21.0857C57.6085 21.1778 57.6065 21.2698 57.6024 21.361V31.0653H61.3548V21.0857C61.3548 18.3282 60.2505 15.832 58.4653 14.0265Z" fill="white"/>
<path d="M10.3411 21.0988L10.3185 21.113L10.3358 21.0953L10.339 21.0921L10.3441 21.0969L10.3534 21.1066L10.3411 21.0988ZM20.0042 19.1761H4.53895C4.69064 18.7039 4.89688 18.2565 5.15036 17.8419C5.39991 17.4337 5.69486 17.0572 6.02833 16.7194C7.13195 15.6021 8.6562 14.911 10.3397 14.911C12.0223 14.911 13.5456 15.6013 14.649 16.7175L17.2957 14.0312C15.5146 12.2294 13.0555 11.1155 10.3397 11.1155C8.04014 11.1155 5.92458 11.9141 4.24891 13.2528C3.9444 13.496 3.65465 13.7568 3.38092 14.0339C2.84318 14.5782 2.36729 15.1851 1.96478 15.8431C1.34943 16.8491 0.905737 17.9741 0.675313 19.1761C0.577605 19.6853 0.517995 20.2083 0.5 20.7418V21.4389C0.517995 21.9716 0.577323 22.4936 0.67475 23.002H16.1414C15.9883 23.4794 15.7794 23.9312 15.5224 24.3498C15.2737 24.7546 14.9801 25.1283 14.6488 25.4635C13.5453 26.5795 12.022 27.2695 10.3397 27.2695C8.65775 27.2695 7.13476 26.5799 6.03143 25.4642L4.24891 27.2735L3.38458 28.1506C3.65732 28.4264 3.94595 28.686 4.24891 28.9279C5.92458 30.2665 8.04014 31.0652 10.3397 31.0652C13.0558 31.0652 15.5149 29.951 17.2963 28.1491C17.8319 27.6073 18.3063 27.0031 18.7079 26.3484C19.3272 25.339 19.7735 24.2094 20.0047 23.002C20.1171 22.4158 20.1788 21.8114 20.1848 21.1935V20.9872C20.1788 20.3684 20.1169 19.7632 20.0042 19.1761Z" fill="white"/>
<path d="M133.45 1.8985C133.45 2.94696 132.611 3.797 131.576 3.797C130.542 3.797 129.703 2.94696 129.703 1.8985C129.703 0.850053 130.542 1.16825e-05 131.576 1.16825e-05C132.611 1.16825e-05 133.45 0.850053 133.45 1.8985Z" fill="white"/>
<path d="M117.608 21.0988L117.585 21.113L117.602 21.0953L117.606 21.0921L117.611 21.0969L117.62 21.1066L117.608 21.0988ZM127.271 19.1761H111.805C111.957 18.7039 112.163 18.2565 112.417 17.8419C112.666 17.4337 112.961 17.0572 113.295 16.7194C114.398 15.6021 115.923 14.911 117.606 14.911C119.289 14.911 120.812 15.6013 121.916 16.7175L124.562 14.0312C122.781 12.2294 120.322 11.1155 117.606 11.1155C115.307 11.1155 113.191 11.9141 111.515 13.2528C111.211 13.496 110.921 13.7568 110.647 14.0339C110.11 14.5782 109.634 15.1851 109.231 15.8431C108.616 16.8491 108.172 17.9741 107.942 19.1761C107.844 19.6853 107.784 20.2083 107.766 20.7418V21.4389C107.784 21.9716 107.844 22.4936 107.941 23.002H123.408C123.255 23.4794 123.046 23.9312 122.789 24.3498C122.54 24.7546 122.247 25.1283 121.915 25.4635C120.812 26.5795 119.288 27.2695 117.606 27.2695C115.924 27.2695 114.401 26.5799 113.298 25.4642L111.515 27.2735L110.651 28.1506C110.924 28.4264 111.212 28.686 111.515 28.9279C113.191 30.2665 115.307 31.0652 117.606 31.0652C120.322 31.0652 122.782 29.951 124.563 28.1491C125.098 27.6073 125.573 27.0031 125.975 26.3484C126.594 25.339 127.04 24.2094 127.271 23.002C127.384 22.4158 127.445 21.8114 127.451 21.1935V20.9872C127.445 20.3684 127.383 19.7632 127.271 19.1761Z" fill="white"/>
</svg>
