<svg width="32" height="32" viewBox="0 0 32 32" fill="none" xmlns="http://www.w3.org/2000/svg">
<path d="M15.9979 16.0135L15.9611 16.0363L15.9893 16.008L15.9945 16.0027L16.0027 16.0105L16.0178 16.026L15.9979 16.0135ZM31.7063 12.9294H6.56578C6.81238 12.172 7.14765 11.4544 7.55971 10.7894C7.96538 10.1346 8.44486 9.53073 8.98696 8.98881C10.781 7.19671 13.2589 6.08819 15.9957 6.08819C18.7308 6.08819 21.2071 7.19534 23.0009 8.98584L27.3035 4.67695C24.4081 1.78684 20.4104 0 15.9957 0C12.2574 0 8.81829 1.28101 6.0943 3.42838C5.59928 3.81837 5.12825 4.23669 4.68328 4.68129C3.80911 5.55426 3.03549 6.52776 2.38118 7.58328C1.38085 9.19694 0.659573 11.0014 0.284992 12.9294C0.126156 13.7462 0.0292534 14.5851 0 15.4409V16.5591C0.0292534 17.4135 0.125697 18.2509 0.284077 19.0663H25.4269C25.178 19.8321 24.8384 20.5568 24.4206 21.2282C24.0163 21.8775 23.5391 22.477 23.0005 23.0146C21.2066 24.8047 18.7304 25.9116 15.9957 25.9116C13.2614 25.9116 10.7856 24.8053 8.99199 23.0158L6.0943 25.918L4.68923 27.3249C5.1326 27.7672 5.60179 28.1837 6.0943 28.5716C8.81829 30.7188 12.2574 32 15.9957 32C20.4109 32 24.4085 30.2127 27.3044 27.3224C28.1751 26.4533 28.9462 25.4841 29.5992 24.4341C30.6059 22.8149 31.3313 21.003 31.7072 19.0663C31.8898 18.1261 31.9902 17.1565 32 16.1654V15.8346C31.9902 14.8419 31.8896 13.8711 31.7063 12.9294Z" fill="#F8485E"/>
</svg>
