<?xml version="1.0" encoding="UTF-8" standalone="no"?>
<!DOCTYPE svg PUBLIC "-//W3C//DTD SVG 1.1//EN" "http://www.w3.org/Graphics/SVG/1.1/DTD/svg11.dtd">
<svg width="100%" height="100%" viewBox="0 0 6666 1871" version="1.1" xmlns="http://www.w3.org/2000/svg" xmlns:xlink="http://www.w3.org/1999/xlink" xml:space="preserve" xmlns:serif="http://www.serif.com/" style="fill-rule:evenodd;clip-rule:evenodd;stroke-linejoin:round;stroke-miterlimit:2;">
    <g transform="matrix(16.6632,0,0,16.6632,-80.3167,-128.176)">
        <g id="SPOT">
            <path d="M237.516,118.953C234.596,118.361 231.011,117.655 229.551,117.385C228.091,117.115 226.694,116.827 226.446,116.746C226.199,116.665 224.87,116.161 223.494,115.626C220.334,114.398 219.323,113.804 218.801,112.869C218.597,112.505 218.571,112.356 218.571,111.559L218.571,110.661L219.019,109.919C219.754,108.702 219.919,108.282 219.92,107.627L219.921,107.048L218.782,105.242C214.962,99.182 213.155,96.09 211.782,93.266C211.229,92.127 210.622,90.932 210.433,90.611C210.23,90.264 209.796,89.163 209.37,87.911C208.974,86.747 208.31,84.948 207.893,83.913C207.169,82.114 207.113,81.924 206.639,79.638C206.366,78.322 205.944,76.456 205.7,75.491C205.428,74.411 205.115,72.814 204.889,71.344L204.521,68.951L204.554,64.639L204.587,60.326L204.954,58.031C205.214,56.402 205.467,55.2 205.825,53.891C206.103,52.876 206.53,51.175 206.775,50.111C207.313,47.766 207.637,46.796 208.214,45.791C208.459,45.365 208.964,44.19 209.353,43.142C209.99,41.426 210.182,41.029 211.506,38.687C213.666,34.864 215.381,32.329 217.641,29.616C220.382,26.326 221.261,25.365 222.463,24.345C223.964,23.071 223.76,23.223 226.39,21.406C228.286,20.097 229.252,19.503 231.182,18.461L233.601,17.156L237.358,16.164L241.116,15.173L246.179,15.079L250.307,15.859C254.855,16.719 255.909,17.001 257.494,17.784C258.04,18.053 259.418,18.589 260.556,18.973C262.328,19.572 263.072,19.888 265.72,21.166C267.422,21.986 269.062,22.798 269.365,22.969C269.686,23.15 270.242,23.61 270.696,24.072C271.406,24.794 271.589,25.061 272.714,27.026C273.395,28.214 274.084,29.391 274.245,29.643C274.406,29.894 274.88,30.806 275.3,31.668C275.719,32.53 276.333,33.681 276.664,34.226C276.994,34.77 277.611,36.005 278.034,36.97C278.457,37.935 279.005,39.039 279.252,39.424C279.594,39.958 280.05,41.026 281.174,43.925L282.647,47.726L283.376,50.876C283.928,53.259 284.2,54.255 284.496,54.971C284.711,55.49 285.051,56.462 285.251,57.131C285.575,58.214 285.642,58.608 285.865,60.776C286.109,63.14 286.116,63.342 286.109,68.291C286.105,71.239 286.037,75.153 285.947,77.606L285.793,81.836L285.47,83.051C285.179,84.149 285.053,84.443 284.155,86.111C282.566,89.063 281.656,90.712 281.345,91.2C281.186,91.451 280.725,92.423 280.32,93.36C279.915,94.298 279.363,95.414 279.094,95.84C278.825,96.265 277.893,98.108 277.024,99.935C275.692,102.734 275.402,103.418 275.18,104.291C275.034,104.86 274.834,105.609 274.733,105.955C274.598,106.422 274.551,106.848 274.551,107.6C274.551,108.578 274.562,108.637 274.859,109.22C275.186,109.863 275.499,110.161 276.22,110.521L276.666,110.744L284.586,110.894C289.475,110.987 296.281,111.044 302.369,111.043C313.313,111.041 312.43,110.995 313.704,111.624C315.013,112.269 314.872,113.842 313.417,114.83C312.873,115.199 309.883,116.429 308.406,116.891C307.676,117.119 307.397,117.161 306.593,117.161C305.749,117.161 305.562,117.13 304.93,116.886C304.235,116.619 303.132,116.09 302.406,115.676C301.719,115.284 298.478,114.442 297.186,114.319C296.258,114.232 294.026,114.255 287.961,114.415C285.263,114.486 282.104,114.568 280.941,114.597C279.672,114.629 278.466,114.612 277.926,114.555C277.431,114.502 275.872,114.434 274.461,114.403C272.104,114.351 271.79,114.363 270.591,114.545C267.316,115.041 266.533,115.205 264.246,115.871C262.655,116.334 261.002,116.735 259.083,117.123C256.228,117.699 255.65,117.844 251.707,118.971C250.333,119.364 249.143,119.647 248.512,119.731C247.513,119.864 244.532,120.041 243.411,120.034C243.032,120.032 240.957,119.651 237.516,118.953L237.516,118.953ZM247.432,111.041C250.393,110.843 252.897,110.661 252.996,110.636C253.095,110.612 254.452,110.449 256.011,110.274C259.314,109.904 261.476,109.465 263.018,108.851C264.386,108.306 266.323,106.832 268.259,104.863C269.518,103.582 269.783,103.255 270.833,101.681C273.215,98.11 273.951,96.853 274.68,95.113C275.053,94.223 275.717,92.775 276.157,91.895C276.661,90.885 277.114,89.815 277.386,88.991C277.948,87.285 278.826,84.895 279.401,83.507C279.818,82.499 280.471,80.115 280.623,79.044C280.673,78.695 280.922,74.056 281.126,69.686C281.183,68.472 281.209,65.889 281.187,63.791C281.149,60.215 281.135,59.973 280.87,58.121C280.513,55.616 279.919,53.54 278.424,49.564C277.605,47.385 277.183,46.395 276.759,45.656C275.581,43.6 275.377,43.202 275.053,42.326C274.788,41.61 274.412,40.942 273.218,39.068C271.115,35.769 269.44,33.661 266.856,31.067C264.684,28.885 264.071,28.389 261.456,26.702C259.281,25.298 257.948,24.708 253.404,23.139C250.698,22.204 250.02,22.123 244.896,22.122C241.733,22.122 240.881,22.15 239.676,22.294C237.451,22.56 234.974,23.319 232.845,24.388C231.831,24.898 226.577,28.978 224.9,30.558C224.199,31.219 222.489,33.023 221.101,34.568C218.599,37.35 218.564,37.395 217.139,39.6C216.348,40.823 215.663,41.896 215.617,41.985C215.57,42.073 214.979,43.594 214.303,45.364C213.146,48.393 213.051,48.692 212.68,50.449C212.276,52.361 212.259,52.532 211.952,57.491C211.601,63.176 211.411,74.291 211.645,75.501C211.696,75.767 211.837,76.553 211.958,77.246C212.271,79.041 212.754,80.514 213.552,82.106C214.064,83.127 214.401,83.982 214.935,85.616C215.534,87.451 215.739,87.954 216.298,88.96C216.66,89.612 217.322,91.05 217.77,92.155C218.62,94.253 219.633,96.157 221.205,98.611C222.308,100.333 224.604,102.963 226.315,104.465C227.62,105.611 227.825,105.752 230.185,107.126C231.741,108.032 233.006,108.704 233.554,108.913C235.146,109.523 241.334,111.352 241.942,111.393C242,111.397 244.471,111.239 247.432,111.041L247.432,111.041ZM39.561,119.356C37.294,119.054 37.23,119.04 34.386,118.188C32.802,117.714 30.129,116.867 28.446,116.307C25.657,115.377 25.163,115.242 22.866,114.777C19.077,114.012 17.71,113.64 16.807,113.129C16.395,112.896 15.731,112.442 15.331,112.121C14.638,111.563 14.585,111.495 14.218,110.67C14.006,110.194 13.679,109.303 13.492,108.69C13.303,108.074 13.014,107.354 12.844,107.081C12.666,106.795 11.676,105.73 10.501,104.561L8.465,102.536L8.173,101.71L7.881,100.885L7.881,99.074C7.881,97.439 7.899,97.229 8.062,96.909C8.364,96.316 8.777,95.924 9.393,95.645C9.909,95.411 10.075,95.381 10.841,95.381C11.653,95.382 11.764,95.406 12.651,95.769C13.171,95.982 13.745,96.255 13.928,96.376C14.119,96.502 14.863,97.38 15.678,98.441C17.281,100.526 18.703,102.078 20.722,103.945C22.048,105.171 22.225,105.3 24.751,106.872L27.392,108.517L30.394,109.459C32.045,109.977 33.573,110.463 33.789,110.54C34.006,110.617 34.917,110.811 35.814,110.972C37.444,111.263 37.451,111.263 40.956,111.291C45.115,111.323 46.218,111.219 49.371,110.5C50.435,110.257 52.359,109.832 53.646,109.555C57.611,108.703 58.765,108.392 62.294,107.219C64.783,106.392 65.917,105.97 66.487,105.658L67.269,105.231L68.459,103.658C69.74,101.966 69.766,101.917 71.327,98.306C72.504,95.583 72.636,95.163 73.175,92.43L73.671,89.918L73.67,86.957C73.67,84.455 73.643,83.841 73.498,82.999C73.179,81.145 73.101,80.932 72.327,79.808C71.413,78.481 70.409,77.608 67.424,75.54C63.875,73.082 61.731,71.904 58.869,70.838C57.733,70.415 56.282,69.831 55.644,69.542C54.655,69.092 54.07,68.909 51.636,68.288C50.068,67.889 47.723,67.219 46.423,66.801C45.011,66.347 43.707,65.985 43.183,65.901C39.513,65.318 36.676,64.564 34.926,63.706C34.332,63.414 33.441,63.046 32.946,62.887C31.706,62.489 30.275,61.9 29.378,61.417C28.965,61.195 27.816,60.682 26.826,60.278C24.989,59.528 24.635,59.346 21.336,57.462C18.703,55.958 17.204,54.769 15.502,52.833C14.61,51.819 14.122,51.175 13.779,50.562C13.041,49.242 11.823,46.153 11.383,44.486L11.003,43.046L10.964,39.267C10.916,34.718 10.937,34.553 11.745,33.195C12.674,31.633 16.259,25.88 17.185,24.464C18.185,22.937 19.464,21.14 19.838,20.74C19.969,20.599 20.42,20.279 20.841,20.029C21.469,19.655 21.992,19.454 23.766,18.907C24.954,18.541 26.372,18.063 26.916,17.846C28.458,17.23 30.53,16.783 35.503,15.993C40.506,15.198 41.397,15.107 44.259,15.103C46.102,15.101 46.347,15.121 48.579,15.466C53.972,16.3 56.994,16.984 58.866,17.797C60.239,18.393 61.819,19.027 63.591,19.692C64.784,20.139 68.746,22.08 69.572,22.621C69.697,22.703 70.113,23.201 70.497,23.728C70.88,24.255 71.321,24.827 71.477,25.001C71.632,25.174 72.561,26.693 73.542,28.376C75.446,31.645 75.682,32.173 75.795,33.414C75.857,34.106 75.855,34.118 75.476,34.89C75.099,35.659 75.087,35.672 74.45,36.007C73.634,36.435 73.063,36.459 72.193,36.102C71.676,35.89 71.46,35.709 70.278,34.504C69.545,33.757 68.397,32.477 67.726,31.661C66.082,29.659 64.456,28.227 61.771,26.416L59.816,25.097L56.596,23.758C53.855,22.618 53.242,22.395 52.476,22.261C51.981,22.175 51.131,22.025 50.586,21.929C47.787,21.435 46.251,21.311 42.927,21.311C39.82,21.311 39.727,21.316 37.391,21.628C34.101,22.068 33.982,22.089 32.766,22.443C31.707,22.752 30.98,23.069 27.726,24.639C26.161,25.394 26.042,25.471 24.216,26.916L22.326,28.412L21.417,29.699C19.761,32.042 19.447,32.639 19.01,34.271C18.549,35.991 18.411,37.059 18.411,38.927C18.41,41.375 18.687,43.277 19.358,45.443C19.632,46.326 21.174,48.921 21.96,49.823C22.579,50.533 24.011,51.592 25.109,52.151C25.451,52.325 26.541,52.911 27.53,53.452C28.52,53.993 29.9,54.675 30.597,54.968C31.295,55.26 32.453,55.758 33.171,56.073C34.038,56.455 35.443,56.943 37.356,57.528C38.94,58.011 40.682,58.604 41.226,58.845C41.99,59.183 42.833,59.438 44.916,59.96C46.778,60.426 48.291,60.873 49.791,61.399C50.988,61.818 52.587,62.306 53.346,62.483C55.441,62.971 58.374,63.84 59.631,64.346C60.25,64.595 61.343,65.013 62.061,65.275C64.579,66.193 64.702,66.256 66.785,67.688C68.587,68.926 68.952,69.224 70.823,70.987C72.632,72.692 73.028,73.118 74.112,74.526L75.345,76.127L76.719,79.111C78.404,82.77 78.477,83.048 78.575,86.156C78.626,87.801 78.604,88.501 78.447,90.296C78.156,93.6 78.019,94.301 77.187,96.738C76.775,97.942 76.329,99.463 76.146,100.286C75.754,102.048 75.589,102.667 75.01,104.536L74.559,105.997L74.663,108.119C74.721,109.287 74.745,110.333 74.717,110.444C74.689,110.555 74.392,110.909 74.056,111.23L73.446,111.814L70.746,112.519C69.261,112.906 67.58,113.395 67.011,113.605C66.442,113.815 65.186,114.262 64.221,114.597C63.256,114.933 61.393,115.609 60.081,116.099C58.276,116.774 57.28,117.089 55.986,117.395C55.046,117.617 52.94,118.12 51.306,118.512L48.336,119.226L45.561,119.453C44.034,119.578 42.576,119.676 42.321,119.67C42.065,119.664 40.823,119.523 39.561,119.356L39.561,119.356ZM112.641,119.317C112.174,119.017 111.818,118.649 110.872,117.488L109.688,116.036L108.577,115.42C107.518,114.833 107.393,114.788 105.899,114.454C105.037,114.262 103.667,113.914 102.854,113.682C101.533,113.306 101.366,113.237 101.288,113.032C101.223,112.86 101.24,112.715 101.358,112.455C101.538,112.056 101.453,112.099 104.862,110.638C107.79,109.383 108.19,109.172 108.732,108.598C109.47,107.816 109.627,107.463 109.847,106.091C110.028,104.958 110.053,104.201 110.211,94.976C110.532,76.364 110.647,67.641 110.845,46.871C110.956,35.201 110.983,35.722 110.128,33.032C109.446,30.886 109.445,30.892 110.57,24.391C111.572,18.601 111.679,18.191 112.312,17.673C113.052,17.068 113.544,16.925 115.408,16.773C119.672,16.427 127.28,16.193 137.346,16.1C145.282,16.027 146.071,16.033 148.326,16.191C153.563,16.555 155.961,16.966 158.222,17.885C158.818,18.127 160.216,18.634 161.329,19.011C163.567,19.77 163.914,19.941 166.482,21.545C168.645,22.896 170.291,24.237 172.153,26.163C173.24,27.289 173.762,27.931 175.049,29.73C176.355,31.554 176.795,32.256 177.654,33.885C179.348,37.095 179.421,37.319 179.737,40.346C179.944,42.323 179.919,47.646 179.692,50.106C179.488,52.305 179.436,52.633 179.017,54.386C178.729,55.589 178.664,55.745 177.57,57.851C176.747,59.434 176.201,60.36 175.632,61.136C174.524,62.645 172.451,64.808 170.816,66.158C167.244,69.109 160.365,73.28 158.245,73.78C156.321,74.234 155.187,74.311 146.931,74.548C125.536,75.163 121.888,75.293 121.461,75.456C120.765,75.723 120.248,76.194 119.711,77.051C119.264,77.765 119.195,77.944 119.034,78.806C118.569,81.297 118.162,86.077 118.198,88.638C118.21,89.509 118.306,92.081 118.411,94.353C118.687,100.322 118.743,107.85 118.535,111.176L118.378,113.696L117.808,115.7C117.077,118.272 116.816,118.707 115.656,119.303C115.191,119.541 114.984,119.588 114.171,119.637L113.226,119.694L112.641,119.317L112.641,119.317ZM140.361,68.428C150.349,68.083 150.824,68.046 153.991,67.373C155.767,66.996 160.051,65.704 161.601,65.078C162.173,64.847 163.335,64.185 165.111,63.079C167.575,61.544 167.836,61.356 168.74,60.47C170.015,59.222 170.849,58.107 171.753,56.443C173.127,53.917 173.509,53.014 173.92,51.326C174.435,49.21 174.651,47.299 174.651,44.862C174.651,42.565 174.519,41.763 173.901,40.292C173.499,39.336 173.293,38.981 171.692,36.476C170.709,34.937 167.463,30.954 166.699,30.349C166.444,30.148 165.729,29.515 165.108,28.943C164.207,28.111 163.548,27.618 161.83,26.489L159.678,25.075L157.72,24.319L155.761,23.563L153.709,23.384C152.366,23.267 149.788,23.158 146.256,23.069C143.286,22.994 139.965,22.911 138.876,22.883C133.635,22.752 122.905,22.666 122.439,22.752C121.686,22.891 120.828,23.392 120.239,24.037C119.655,24.675 119.654,24.678 118.373,27.881C117.463,30.154 117.404,30.343 117.105,31.931C116.716,33.992 116.682,34.21 116.288,37.139C115.698,41.525 115.611,42.793 115.611,47.042C115.611,51.645 115.719,53.287 116.331,57.941C116.575,59.797 116.838,61.822 116.917,62.441C117.079,63.73 117.372,64.783 117.853,65.816C118.133,66.416 118.27,66.596 118.677,66.9C119.943,67.843 120.893,68.04 126.006,68.419C128.234,68.584 130.34,68.724 130.686,68.73C131.033,68.736 135.386,68.601 140.361,68.428ZM345.22,118.435C344.12,117.813 343.468,117.378 342.993,116.947L342.321,116.339L342.321,115.779C342.321,115.302 342.392,115.055 342.805,114.098C343.071,113.48 343.355,112.692 343.437,112.346C343.562,111.812 343.647,109.264 343.991,95.696C344.215,86.885 344.624,71.515 344.901,61.541C345.26,48.581 345.416,41.585 345.447,37.026L345.49,30.646L345.241,30.006C344.611,28.388 343.939,27.562 341.961,25.975C340.975,25.184 340.165,24.79 337.68,23.894C335.438,23.085 335.044,22.976 333.051,22.61C330.649,22.169 329.417,22.128 318.536,22.124L309.555,22.121L309.086,21.886C307.999,21.342 307.791,21.01 306.911,18.431C306.579,17.459 306.103,16.374 305.344,14.856C303.924,12.02 303.664,11.109 304.08,10.427C304.347,9.989 304.628,9.793 305.553,9.402C306.838,8.859 308.409,8.623 310.756,8.622L312.626,8.621L313.141,8.887C313.8,9.228 313.952,9.449 313.984,10.114C314.008,10.633 313.996,10.666 313.458,11.456C313.099,11.984 312.669,12.469 312.223,12.851C311.825,13.192 311.404,13.655 311.215,13.961C310.918,14.442 310.894,14.531 310.929,15.02C310.962,15.478 311.011,15.598 311.277,15.875C311.447,16.052 311.789,16.305 312.036,16.436L312.486,16.676L345.336,16.731C363.404,16.761 378.935,16.814 379.851,16.849C381.661,16.919 381.866,16.966 382.713,17.516C383.102,17.768 383.248,17.939 383.501,18.441C383.771,18.977 383.811,19.142 383.811,19.724C383.811,20.363 383.797,20.409 383.474,20.799C383.288,21.023 383.032,21.288 382.904,21.388C382.165,21.967 378.702,22.196 369.141,22.298C360.559,22.39 359.259,22.486 356.796,23.208C354.413,23.907 352.714,24.622 352.332,25.087C352.27,25.164 352.063,25.55 351.874,25.946C351.584,26.55 351.511,26.825 351.419,27.656C351.338,28.395 351.268,38.998 351.144,69.456C350.978,110.034 350.979,110.272 351.155,111.303C351.295,112.124 351.443,112.599 351.867,113.589C352.386,114.804 352.401,114.86 352.401,115.644C352.401,116.774 352.283,116.957 350.871,118.002C349.403,119.09 349.121,119.206 347.811,119.266L346.776,119.314L345.22,118.435L345.22,118.435ZM398.256,118.096C397.959,118.028 397.25,117.866 396.681,117.735C395.131,117.38 393.645,116.909 393.251,116.648C392.916,116.426 392.901,116.396 392.901,115.929C392.901,115.324 393.114,115.094 393.922,114.826C394.885,114.507 395.576,114.441 398.363,114.399C400.95,114.361 401.116,114.368 401.828,114.558C402.394,114.708 402.689,114.847 403.037,115.126C403.451,115.457 403.504,115.541 403.551,115.931C403.618,116.48 403.439,116.748 402.671,117.246C401.961,117.706 401.036,117.948 399.066,118.187C398.918,118.205 398.553,118.164 398.256,118.096L398.256,118.096ZM362.724,116.739L362.112,116.413L362.139,116.001C362.164,115.626 362.198,115.572 362.526,115.387C362.842,115.208 363.014,115.183 363.938,115.182C364.516,115.181 365.103,115.224 365.243,115.277C365.671,115.439 365.901,115.718 365.901,116.074C365.901,116.363 365.86,116.418 365.502,116.607C365.143,116.798 363.973,117.068 363.516,117.066C363.417,117.065 363.061,116.918 362.724,116.739L362.724,116.739ZM162.546,114.983C161.903,114.949 160.384,114.856 159.171,114.777C156.997,114.634 156.955,114.627 156.156,114.306C155.091,113.877 154.941,113.739 154.941,113.189L154.941,112.759L155.729,112.389C156.317,112.113 156.698,111.999 157.236,111.937C158.853,111.75 162.864,111.648 170.198,111.606C177.045,111.567 178.029,111.579 178.71,111.706C179.737,111.899 182.408,111.904 183.111,111.715C183.465,111.62 184.094,111.582 185.316,111.581C186.81,111.581 187.14,111.608 187.926,111.795C188.521,111.938 189.39,112.048 190.491,112.121C192.476,112.253 192.651,112.316 192.651,112.901C192.651,113.672 192.202,113.828 189.983,113.83C189.337,113.83 188.672,113.894 188.111,114.009C187.633,114.108 186.682,114.235 185.998,114.292C184.938,114.381 184.58,114.375 183.585,114.248C181.581,113.995 180.073,114.046 177.197,114.464C175.016,114.782 174.374,114.839 172.176,114.911C168.753,115.023 163.97,115.059 162.546,114.983L162.546,114.983ZM142.6,114.264C141.998,113.763 141.8,113.405 141.803,112.821C141.805,112.443 141.818,112.426 142.5,111.947C143.146,111.494 143.26,111.448 144.096,111.304C145.857,111.002 146.277,110.995 147.131,111.255C147.779,111.453 147.952,111.549 148.259,111.882C148.599,112.251 148.619,112.303 148.582,112.716C148.476,113.889 148.341,114.053 147.201,114.393C146.546,114.588 146.2,114.628 144.792,114.67L143.147,114.719L142.6,114.264L142.6,114.264ZM196.611,114.541C196.438,114.497 195.908,114.441 195.434,114.417C194.321,114.361 193.806,114.151 193.548,113.645C193.436,113.425 193.379,113.168 193.398,112.974C193.441,112.559 193.939,111.879 194.315,111.722C194.729,111.549 207.828,111.406 208.322,111.569C208.805,111.729 209.091,112.087 209.235,112.717L209.362,113.268L208.994,113.682C208.701,114.012 208.479,114.152 207.908,114.369L207.19,114.641L202.058,114.632C199.235,114.627 196.784,114.586 196.611,114.542L196.611,114.541ZM5.816,113.724C4.628,112.762 4.493,111.471 5.465,110.363C5.893,109.876 6.149,109.781 7.025,109.781C7.671,109.781 7.87,109.817 8.243,110.006C8.842,110.31 9.051,110.718 9.051,111.58C9.051,112.766 8.479,113.46 7.123,113.918L6.371,114.172L5.816,113.724ZM397.941,13.602C397.372,13.43 396.056,12.93 395.016,12.492C392.925,11.609 391.936,11.341 388.536,10.734C387.546,10.557 386.69,10.397 386.634,10.378C386.569,10.356 386.552,10.24 386.589,10.061C386.644,9.792 386.694,9.762 387.591,9.471C388.384,9.213 388.797,9.141 390.156,9.024C391.047,8.947 392.845,8.785 394.152,8.662C396.13,8.478 397.04,8.441 399.572,8.441C402.583,8.441 402.621,8.443 403.091,8.654C404.191,9.149 404.871,9.978 404.871,10.824C404.871,11.379 404.445,12.191 403.834,12.803L403.382,13.256L402.034,13.544C401.293,13.703 400.301,13.851 399.831,13.874C399.049,13.911 398.888,13.888 397.941,13.602ZM103.416,12.593C101.763,12.012 98.744,10.598 98.607,10.341C98.554,10.243 98.511,10.02 98.511,9.846C98.511,9.104 99.782,8.721 103.185,8.434C104.824,8.296 106.049,8.263 109.536,8.265C114.965,8.268 115.412,8.336 116.198,9.269C116.463,9.584 116.464,9.826 116.202,10.442C116.085,10.717 115.946,10.836 115.452,11.083C114.443,11.589 113.856,11.752 111.696,12.128C110.557,12.326 109.19,12.568 108.658,12.666C108.036,12.781 107.102,12.862 106.048,12.892L104.406,12.941L103.416,12.593L103.416,12.593ZM195.088,11.277C194.572,11.207 194.092,11.181 194.022,11.221C193.952,11.26 193.715,11.251 193.495,11.2C193.206,11.134 192.937,11.14 192.527,11.222C191.483,11.429 188.752,10.978 187.536,10.396C187.185,10.229 187.112,10.15 187.089,9.917C187.067,9.691 187.118,9.596 187.367,9.406C187.792,9.082 189.083,8.721 190.311,8.584C191.216,8.482 191.896,8.344 193.326,7.972C193.538,7.916 196.009,7.842 199.332,7.79C204.887,7.704 204.995,7.706 206.113,7.895C207.277,8.091 207.756,8.273 208.457,8.785C208.81,9.042 208.832,9.085 208.892,9.652C208.972,10.394 208.867,10.581 208.191,10.912C207.761,11.123 207.538,11.16 206.275,11.235C205.489,11.282 202.862,11.339 200.436,11.362C196.951,11.395 195.829,11.377 195.088,11.277L195.088,11.277ZM8.541,11.142C7.748,10.933 7.208,10.668 6.824,10.303C6.574,10.066 6.531,9.963 6.531,9.597C6.531,9.191 6.552,9.155 6.937,8.89C7.161,8.736 7.697,8.491 8.13,8.346C8.892,8.091 8.969,8.083 10.684,8.082C12.105,8.081 12.625,8.116 13.339,8.262C14.584,8.516 15.318,8.777 15.674,9.09C16.115,9.477 16.092,9.777 15.592,10.187C15.101,10.59 14.573,10.716 12.183,10.999C9.381,11.331 9.271,11.336 8.541,11.142L8.541,11.142ZM278.106,10.909C277.265,10.69 276.475,10.436 276.351,10.344C276.165,10.206 276.121,10.089 276.099,9.672L276.072,9.168L276.614,8.894C277.348,8.523 278.012,8.444 280.409,8.442C282.132,8.44 282.547,8.467 283.126,8.616C284.338,8.925 284.811,9.258 284.811,9.8C284.811,10.321 284.681,10.554 284.248,10.808C283.666,11.149 283.242,11.215 281.346,11.263L279.636,11.306L278.106,10.909L278.106,10.909ZM172.311,10.966C170.313,10.581 169.943,10.405 169.899,9.816C169.876,9.507 169.912,9.421 170.145,9.224C170.295,9.098 170.643,8.91 170.918,8.808C171.388,8.632 171.6,8.621 174.516,8.621L177.614,8.621L179.395,8.934C180.375,9.106 181.439,9.292 181.761,9.349C182.083,9.405 182.393,9.497 182.45,9.553C182.585,9.687 182.7,10.241 182.593,10.241C182.547,10.241 181.339,10.419 179.908,10.637C177.585,10.992 177.084,11.039 175.236,11.082C173.467,11.123 173.042,11.106 172.311,10.966ZM216.62,10.839C216.13,10.589 216.053,10.512 215.96,10.188C215.781,9.556 215.858,9.341 216.404,8.961L216.892,8.621L217.85,8.621C218.717,8.621 218.855,8.644 219.297,8.868L219.786,9.116L219.814,9.596C219.833,9.929 219.795,10.147 219.693,10.303C219.471,10.642 218.551,11.018 217.806,11.075C217.227,11.119 217.131,11.1 216.62,10.839L216.62,10.839ZM354.426,10.725C354.278,10.712 353.407,10.655 352.491,10.598C350.892,10.498 350.816,10.485 350.58,10.261C350.223,9.925 350.187,9.725 350.435,9.459C350.551,9.335 350.754,9.177 350.885,9.109C351.19,8.95 354.513,8.802 357.783,8.801C359.787,8.801 360.194,8.823 360.438,8.946C360.969,9.215 361.041,9.327 361.041,9.881L361.041,10.394L360.479,10.536C360.05,10.645 359.297,10.687 357.306,10.714C355.871,10.733 354.575,10.738 354.426,10.725L354.426,10.725ZM150.73,10.337C150.606,10.169 150.531,9.938 150.531,9.721C150.531,9.411 150.569,9.352 150.881,9.177C151.339,8.919 151.626,8.929 151.964,9.214C152.209,9.42 152.241,9.502 152.241,9.922L152.241,10.397L151.695,10.459C151.395,10.493 151.099,10.54 151.039,10.563C150.978,10.586 150.839,10.484 150.73,10.337L150.73,10.337ZM367.404,10.37C366.97,10.141 366.945,10.112 366.858,9.7C366.82,9.516 366.874,9.43 367.158,9.228C367.471,9.005 367.579,8.981 368.255,8.983C368.941,8.985 369.031,9.007 369.291,9.23C369.491,9.402 369.593,9.586 369.634,9.845L369.692,10.214L368.944,10.363C368.533,10.446 368.115,10.532 368.016,10.555C367.917,10.578 367.642,10.495 367.404,10.37L367.404,10.37ZM256.848,10.259C256.788,10.221 256.713,10.027 256.682,9.828C256.628,9.49 256.645,9.449 256.941,9.223C257.327,8.929 257.554,8.918 257.905,9.177C258.134,9.347 258.171,9.433 258.171,9.796C258.171,10.213 258.167,10.218 257.834,10.273C257.378,10.348 256.979,10.342 256.848,10.259L256.848,10.259ZM237.034,10.042C236.798,9.892 236.751,9.806 236.751,9.52C236.751,9.217 236.784,9.167 237.034,9.079C237.402,8.951 237.764,8.954 238.056,9.087C238.259,9.18 238.286,9.241 238.263,9.552C238.237,9.895 238.217,9.916 237.776,10.065C237.33,10.217 237.308,10.216 237.034,10.042L237.034,10.042ZM139.25,9.825C139.185,9.44 139.299,9.306 139.857,9.105C140.095,9.02 140.199,9.037 140.564,9.219C140.903,9.389 140.991,9.48 140.991,9.659C140.991,9.939 140.757,10.039 139.919,10.117L139.308,10.174L139.25,9.825L139.25,9.825Z" style="fill-rule:nonzero;"/>
        </g>
    </g>
</svg>
